<?xml version="1.0" encoding="UTF-8" standalone="no"?>
<svg
   xmlns:dc="http://purl.org/dc/elements/1.1/"
   xmlns:cc="http://creativecommons.org/ns#"
   xmlns:rdf="http://www.w3.org/1999/02/22-rdf-syntax-ns#"
   xmlns:svg="http://www.w3.org/2000/svg"
   xmlns="http://www.w3.org/2000/svg"
   xmlns:sodipodi="http://sodipodi.sourceforge.net/DTD/sodipodi-0.dtd"
   xmlns:inkscape="http://www.inkscape.org/namespaces/inkscape"
   height="682pt"
   viewBox="-49 -21 682 682.66981"
   width="682pt"
   version="1.1"
   id="svg14"
   sodipodi:docname="label-white.svg"
   inkscape:version="1.0.2-2 (e86c870879, 2021-01-15)">
  <metadata
     id="metadata20">
    <rdf:RDF>
      <cc:Work
         rdf:about="">
        <dc:format>image/svg+xml</dc:format>
        <dc:type
           rdf:resource="http://purl.org/dc/dcmitype/StillImage" />
        <dc:title></dc:title>
      </cc:Work>
    </rdf:RDF>
  </metadata>
  <defs
     id="defs18" />
  <sodipodi:namedview
     pagecolor="#ffffff"
     bordercolor="#666666"
     borderopacity="1"
     objecttolerance="10"
     gridtolerance="10"
     guidetolerance="10"
     inkscape:pageopacity="0"
     inkscape:pageshadow="2"
     inkscape:window-width="2560"
     inkscape:window-height="1377"
     id="namedview16"
     showgrid="false"
     inkscape:zoom="1.1085044"
     inkscape:cx="454.66667"
     inkscape:cy="454.66667"
     inkscape:window-x="-8"
     inkscape:window-y="-8"
     inkscape:window-maximized="1"
     inkscape:current-layer="svg14" />
  <path
     d="m259.054688 275.105469c-5.390626-4.320313-13.265626-3.457031-17.585938 1.933593l-86.496094 107.851563c-4.320312 5.398437-3.457031 13.269531 1.941406 17.589844 2.308594 1.851562 5.070313 2.753906 7.816407 2.753906 3.660156 0 7.292969-1.605469 9.765625-4.6875l86.492187-107.851563c4.320313-5.390624 3.457031-13.265624-1.933593-17.589843zm0 0"
     id="path2"
     style="fill:#ffffff" />
  <path
     d="m249.304688 397.265625 55.339843-69.628906c4.296875-5.410157 3.398438-13.277344-2.011719-17.578125-5.402343-4.300782-13.273437-3.398438-17.578124 2.007812l-55.335938 69.628906c-4.300781 5.410157-3.402344 13.273438 2.007812 17.578126 2.300782 1.828124 5.046876 2.714843 7.777344 2.714843 3.683594 0 7.328125-1.617187 9.800782-4.722656zm0 0"
     id="path4"
     style="fill:#ffffff" />
  <path
     d="m346.300781 345.074219c-5.390625-4.324219-13.261719-3.457031-17.585937 1.9375l-86.492188 107.851562c-4.320312 5.390625-3.457031 13.261719 1.933594 17.585938 2.3125 1.851562 5.074219 2.75 7.820312 2.75 3.664063 0 7.296876-1.601563 9.769532-4.683594l86.492187-107.855469c4.324219-5.390625 3.453125-13.261718-1.9375-17.585937zm0 0"
     id="path6"
     style="fill:#ffffff" />
  <path
     d="m214.457031 416.980469-.933593-.449219c-6.234376-2.972656-13.707032-.332031-16.679688 5.90625-2.976562 6.234375-.335938 13.703125 5.902344 16.679688l.9375.449218c1.738281.824219 3.570312 1.21875 5.378906 1.21875 4.671875 0 9.152344-2.625 11.300781-7.125 2.972657-6.238281.328125-13.703125-5.90625-16.679687zm0 0"
     id="path8"
     style="fill:#ffffff" />
  <path
     d="m547.164062 90.335938.128907.066406c1.746093.839844 3.59375 1.234375 5.414062 1.234375 4.65625 0 9.125-2.613281 11.285157-7.089844 2.992187-6.230469.371093-13.707031-5.855469-16.699219l-.132813-.0625c-6.226562-2.996094-13.699218-.371094-16.695312 5.859375-2.992188 6.222657-.371094 13.699219 5.855468 16.691407zm0 0"
     id="path10"
     style="fill:#ffffff" />
  <path
     d="m581.71875 119.746094c-.890625-6.855469-7.167969-11.695313-14.023438-10.796875-6.847656.894531-11.679687 7.167969-10.789062 14.023437 3.984375 30.636719-4.457031 60.773438-23.785156 84.871094-15.738282 19.621094-36.757813 32.5625-59.417969 38.429688l-9.542969-100.632813c-.828125-8.78125-5.078125-16.652344-11.953125-22.167969-6.878906-5.519531-15.476562-7.953125-24.238281-6.855468l-94.671875 11.835937c.011719-.082031.015625-.175781.019531-.257813 1.835938-22.363281 10.253906-43.472656 24.355469-61.054687 18.789063-23.433594 45.582031-38.144531 75.441406-41.425781 29.855469-3.285156 59.203125 5.257812 82.636719 24.050781 5.382812 4.320313 13.265625 3.460937 17.585938-1.933594 4.320312-5.390625 3.457031-13.261719-1.933594-17.585937-28.648438-22.972656-64.527344-33.417969-101.023438-29.40625-36.503906 4.015625-69.253906 22-92.226562 50.644531-17.230469 21.488281-27.53125 47.304687-29.769532 74.664063-.144531 1.695312-.246093 3.542968-.320312 5.464843l-41.203125 5.148438c-8.386719 1.050781-15.917969 5.261719-21.207031 11.851562l-244.398438 304.765625c-4.324218 5.390625-3.457031 13.261719 1.933594 17.585938l207.351562 166.285156c.289063.230469.582032.449219.882813.648438 2.117187 1.410156 4.53125 2.105468 6.933594 2.105468h.007812c.433594 0 .863281-.03125 1.292969-.074218.132812-.015626.261719-.039063.398438-.058594.300781-.039063.59375-.082032.886718-.144532.160156-.035156.316406-.074218.472656-.117187.261719-.066406.527344-.136719.785157-.214844.167969-.054687.332031-.117187.5-.183593.242187-.085938.480469-.179688.714843-.285157.171876-.074219.34375-.152343.507813-.234375.226563-.113281.449219-.234375.664063-.359375.171874-.097656.339843-.195312.503906-.296875.210937-.136718.421875-.289062.625-.433594.15625-.113281.3125-.226562.46875-.347656.226562-.179687.441406-.375.65625-.574218.117187-.109376.238281-.207032.351562-.320313.011719-.011719.027344-.023437.042969-.039063.300781-.304687.585937-.628906.855469-.957031.011718-.019531.023437-.027343.039062-.042969l244.402344-304.765624c5.28125-6.59375 7.757812-14.855469 6.957031-23.273438l-3.398437-35.855469c29.183594-6.660156 56.417968-22.816406 76.554687-47.929687 23.621094-29.453125 33.945313-66.296875 29.074219-103.75zm-482.042969 396.523437c23.429688 7.011719 51.171875 13.164063 83.273438 16.90625-3.53125 11.679688-6.035157 28.523438-1.558594 48.625l-46.300781-37.132812zm354.90625-206.625c.179688 1.898438-.382812 3.769531-1.574219 5.257813l-234.105468 291.921875c-27.722656-44-8.210938-76.15625-7.335938-77.546875 2.40625-3.6875 2.699219-8.367188.769532-12.324219-1.925782-3.957031-5.800782-6.609375-10.183594-6.984375-92.894532-7.914062-150.65625-37.742188-172.902344-51.507812l235.921875-294.191407c1.191406-1.492187 2.898437-2.441406 4.792969-2.683593l52.25-6.53125h.003906l108.855469-13.613282c1.972656-.25 3.921875.300782 5.476562 1.550782 1.550781 1.246093 2.511719 3.023437 2.699219 5.007812l9.65625 101.804688c-9.003906.289062-18.050781-.5-26.941406-2.378907 1.714844-6.597656 2.242187-13.515625 1.46875-20.492187-1.65625-15.082032-9.085938-28.617188-20.925782-38.113282-24.433593-19.597656-60.257812-15.660156-79.855468 8.777344s-15.65625 60.261719 8.777344 79.859375c10.460937 8.390625 23.011718 12.464844 35.480468 12.464844 16.003906 0 31.855469-6.730469 43.015625-19.644531 11.59375 3.082031 23.472657 4.625 35.335938 4.625 2 0 4.007812-.054688 6.007812-.140625zm-79.535156-84.429687c-5.390625-4.316406-13.261719-3.457032-17.589844 1.933594-4.320312 5.394531-3.457031 13.265624 1.933594 17.585937 7.636719 6.128906 15.742187 11.285156 24.15625 15.527344-11.109375 6.773437-25.742187 6.269531-36.464844-2.324219-13.671875-10.964844-15.875-31.007812-4.90625-44.679688 6.269531-7.824218 15.507813-11.890624 24.824219-11.890624 6.976562 0 14 2.28125 19.859375 6.976562 6.621094 5.3125 10.78125 12.886719 11.707031 21.324219.367188 3.335937.199219 6.644531-.449218 9.84375-8.070313-3.738281-15.824219-8.484375-23.070313-14.296875zm0 0"
     id="path12"
     style="fill:#ffffff" />
</svg>
